<svg version="1" xmlns="http://www.w3.org/2000/svg" width="682.667" height="682.667" viewBox="0 0 512.000000 512.000000"><path d="M453.7 7.6c-.2.2-12.4 1.2-21.6 1.9-6.6.5-18.2 1.6-22.1 2-1.9.2-7.3.7-12 1.1-4.7.3-9.2.7-10 .9-.8.1-6 .6-11.4 1-5.5.4-10.7.8-11.5 1-.9.1-6.1.6-11.5 1-5.5.4-10.7.8-11.5 1-.9.1-6.1.6-11.6 1-5.5.5-10.9.9-12 1.1-1.1.1-5.8.4-10.5.8-4.7.3-10.5.8-13 1.1-7.1.7-16.1 1.6-21.5 2-14.8 1.1-20.3 1.6-23.2 2-1.7.3-7.1.7-12 1-4.8.3-10.1.7-11.8 1-1.6.2-6.4.6-10.5 1-4.1.3-9.3.8-11.5 1-2.2.2-7.1.7-11 1-6.9.6-13 1.1-23 2-2.7.2-8.1.7-12 1-3.8.4-8.8.8-11 1-2.2.2-7.4.7-11.5 1.1-4.1.3-9.3.8-11.5 1-2.2.2-7.6.6-12 .9-4.4.3-9.1.7-10.5 1-1.4.2-6.5.6-11.5 1-4.9.3-10.6.8-12.5 1-4.1.4-20.5 1.9-34 3-3.6.3-8.1.7-10 1-1.9.2-7.3.7-12 1-16.1 1.2-15.5.2-13.5 22 .3 2.7.7 8 1 11.8.3 3.7.7 8.6.9 11 .3 2.3.7 7.3 1.1 11.2.3 3.8.8 8.6 1 10.5.2 1.9.7 7.5 1.1 12.5.9 12.4 1.1 13.9 1.9 23 .4 4.4.9 9.8 1 12 .2 2.2.6 6.9.9 10.5.9 9.4 1.5 16.6 2.1 24 .3 3.6.7 8.1.9 10 .3 1.9.7 7.3 1.1 12 .3 4.7.8 10.1 1 12 .3 1.9.7 6.9 1 11 .3 4.1.7 9.1.9 11 .3 1.9.8 7.1 1.1 11.5.6 8 1.2 15.1 2 23.5.3 2.5.7 7.6 1 11.5.3 3.8.8 9 1 11.5.3 2.5.7 7.6 1 11.5.3 3.8.7 8.8 1 11 .3 3.6.8 8.3 2 23 .3 2.7.7 7.5.9 10.5.3 3 .8 8 1 11 .3 3 .8 8.4 1.1 12 .3 3.6.7 9 1 12 .2 3 .6 7.7.9 10.5.3 2.7.8 8.4 1.1 12.5.3 4.1.8 9.1 1 11 .2 1.9.6 7.1 1 11.5.3 4.4.8 9.6 1 11.5.2 1.9.7 7.3 1.1 12 .4 4.7.8 9.8 1 11.5.1 1.6.6 7 .9 12 .9 11.7 2.5 13.8 10 13.1 2.7-.3 8.2-.8 12-1.1 3.9-.3 9.3-.8 12-1 2.8-.3 7.7-.7 11-1 3.3-.3 8.3-.7 11-1 2.8-.3 7.9-.8 11.5-1 6.7-.5 15.1-1.2 23-2 4.1-.4 7.9-.7 24-2.1 7.9-.6 16.8-1.4 22-1.9 2.5-.2 7.7-.7 11.5-1 3.9-.4 8.8-.8 11-1 2.2-.2 7.6-.6 12.1-1 4.5-.3 9-.7 10-.9 1-.2 6.4-.7 11.9-1.1 5.5-.4 11.1-.9 12.5-1 1.4-.2 6.1-.6 10.5-1s9.6-.8 11.5-1c1.9-.2 7.1-.6 11.5-1s9.8-.8 12-1c2.2-.2 6.9-.6 10.5-1 3.6-.3 9-.7 12-1 3-.3 8.2-.7 11.5-1 3.3-.3 8-.7 10.5-1 2.5-.2 7.9-.7 12-1 7.1-.5 12.5-1 23-2 2.5-.2 7.9-.7 12-1 4.1-.3 9.5-.8 12-1 2.5-.2 7.7-.7 11.5-1 3.9-.4 8.6-.8 10.5-1.1 1.9-.2 7.1-.6 11.5-1 4.4-.3 9.6-.7 11.5-.9 1.9-.2 7.3-.6 12-1 4.7-.3 9.9-.8 11.5-1 1.7-.2 6.7-.7 11.3-1.1 4.6-.3 9.1-.7 10-.9.9-.2 3.7-.4 6.2-.5 6.4-.1 8.4-1.9 8.4-7.7-.1-4.6-1.1-19.6-1.9-25.8-.2-1.7-.7-6.8-1-11.5-.4-4.7-.8-9.6-1-11-.2-1.4-.7-6.3-1-11-.3-4.7-.8-9.9-1-11.5-.2-1.7-.6-7.1-1-12-.3-5-.8-10.6-1-12.5-.8-6.7-1.4-13.6-2-20.5-1.1-14.2-1.6-20.1-2-24-.2-2.2-.7-7.6-1-12-.3-4.4-.7-9.6-1-11.5-.2-1.9-.7-6.7-1-10.5-.3-3.9-.8-9.3-1-12-.3-2.8-.7-7.7-1-11-.5-5.7-2-23-3-34-.2-2.8-.7-8.2-1-12-.3-3.9-.8-8.8-1-11-.2-2.2-.7-7.4-1-11.5-.3-4.1-.8-9.3-1-11.5-.2-2.2-.7-7.4-1-11.5-.6-8-.9-11.4-2-22.5-1.2-13.5-1.4-16.1-2-23.5-.4-4.1-.8-9.1-1-11-.2-1.9-.6-7.3-1-12s-.8-9.6-1-11c-.3-1.4-.7-6.3-1-11-.4-4.7-.8-10.3-1-12.5-.2-2.2-.7-7.4-1-11.5-.3-4.1-.8-8.9-1-10.5-.2-1.7-.7-7.1-1-12-1.2-16.7-2.2-22.8-4.2-23.9-1.4-.9-8.9-1.6-9.6-1z"/></svg>